<?xml version="1.0" encoding="iso-8859-1"?>
<!-- Generator: Adobe Illustrator 19.0.0, SVG Export Plug-In . SVG Version: 6.00 Build 0)  -->
<svg version="1.1" id="Layer_1" xmlns="http://www.w3.org/2000/svg" xmlns:xlink="http://www.w3.org/1999/xlink" x="0px" y="0px"
	 viewBox="0 0 504.123 504.123" style="enable-background:new 0 0 504.123 504.123;" xml:space="preserve">
<path style="fill:#0A3347;" d="M251.958,504.123h-74.744c-92.128,0-92.128-94.216-92.128-125.164V125.164
	C85.086,12.193,154.379,0,184.177,0h130.371c35.927,0,86.733,3.828,113.065,36.959c22.89,28.814,18.062,66.056,11.296,95.271
	l-57.352,253.621C364.748,460.981,317.518,504.123,251.958,504.123z M184.177,62.574c-12.768,0-36.51,0-36.51,62.582v253.802
	c0,62.574,14.344,62.574,29.546,62.574h74.744c35.178,0,58.25-23.363,68.537-69.411l57.399-253.857
	c6.412-27.727,3.923-38.321,0.709-42.378c-3.182-4.009-15.801-13.312-64.063-13.312H184.177z"/>
<g>
	<path style="fill:#134D70;" d="M86.905,95.421c6.365-32.792,23.765-32.847,34.052-32.847h63.212h67.151h63.212
		c48.262,0,60.881,9.311,64.063,13.312c0.89,1.111,1.701,2.788,2.292,5.112c-1.245-15.399-5.845-30.633-16.494-44.048
		C338.069,3.828,287.255,0,251.328,0h-67.151C157.23,0,97.988,9.98,86.905,95.421z"/>
	<path style="fill:#134D70;" d="M318.353,385.851l57.336-253.621c1.953-8.468,3.742-17.605,4.742-27.026
		c-0.614,3.899-1.41,8.121-2.529,13.06l-57.399,253.857c-10.295,46.056-33.359,69.411-68.537,69.411h-63.212h-11.532h-63.204
		c-11.382,0-22.26-0.016-27.034-26.254c4.994,39.085,23.276,88.844,90.23,88.844h11.532
		C254.29,504.123,301.536,460.981,318.353,385.851z"/>
</g>
<path style="fill:#3EBA64;" d="M156.852,176.593c0,7.83-6.341,14.178-14.171,14.178H89.048c-7.83,0-14.171-6.349-14.171-14.178l0,0
	c0-7.822,6.341-14.171,14.171-14.171h53.634C150.511,162.422,156.852,168.771,156.852,176.593L156.852,176.593z"/>
<path style="fill:#92A59B;" d="M172.126,379.164c0,11.461-9.303,20.764-20.771,20.764H80.383c-11.485,0-20.779-9.303-20.779-20.764
	v-185.25c0-11.461,9.295-20.764,20.779-20.764h70.971c11.469,0,20.771,9.303,20.771,20.764L172.126,379.164L172.126,379.164z"/>
<path style="fill:#A8BAB1;" d="M129.606,379.164v-185.25c0-11.461-9.311-20.764-20.779-20.764H80.383
	c-11.485,0-20.779,9.303-20.779,20.764v185.25c0,11.461,9.295,20.764,20.779,20.764h28.444
	C120.295,399.919,129.606,390.625,129.606,379.164z"/>
<g>
	<path style="fill:#BFD8CA;" d="M158.333,198.821c0,1.056-0.851,1.906-1.906,1.906H81.336c-1.056,0-1.906-0.851-1.906-1.906l0,0
		c0-1.063,0.851-1.914,1.906-1.914h75.091C157.475,196.907,158.333,197.758,158.333,198.821L158.333,198.821z"/>
	<path style="fill:#BFD8CA;" d="M158.333,227.17c0,1.056-0.851,1.906-1.906,1.906H81.336c-1.056,0-1.906-0.851-1.906-1.906l0,0
		c0-1.063,0.851-1.914,1.906-1.914h75.091C157.475,225.256,158.333,226.107,158.333,227.17L158.333,227.17z"/>
	<path style="fill:#BFD8CA;" d="M158.333,255.512c0,1.063-0.851,1.914-1.906,1.914H81.336c-1.056,0-1.906-0.851-1.906-1.914l0,0
		c0-1.056,0.851-1.906,1.906-1.906h75.091C157.475,253.598,158.333,254.456,158.333,255.512L158.333,255.512z"/>
	<path style="fill:#BFD8CA;" d="M158.333,283.853c0,1.063-0.851,1.914-1.906,1.914H81.336c-1.056,0-1.906-0.851-1.906-1.914l0,0
		c0-1.063,0.851-1.914,1.906-1.914h75.091C157.475,281.939,158.333,282.789,158.333,283.853L158.333,283.853z"/>
	<path style="fill:#BFD8CA;" d="M158.333,312.202c0,1.063-0.851,1.906-1.906,1.906H81.336c-1.056,0-1.906-0.843-1.906-1.906l0,0
		c0-1.063,0.851-1.914,1.906-1.914h75.091C157.475,310.288,158.333,311.138,158.333,312.202L158.333,312.202z"/>
	<path style="fill:#BFD8CA;" d="M158.333,340.543c0,1.056-0.851,1.906-1.906,1.906H81.336c-1.056,0-1.906-0.851-1.906-1.906l0,0
		c0-1.063,0.851-1.914,1.906-1.914h75.091C157.475,338.629,158.333,339.488,158.333,340.543L158.333,340.543z"/>
	<path style="fill:#BFD8CA;" d="M158.333,368.884c0,1.063-0.851,1.914-1.906,1.914H81.336c-1.056,0-1.906-0.851-1.906-1.914l0,0
		c0-1.056,0.851-1.906,1.906-1.906h75.091C157.475,366.978,158.333,367.829,158.333,368.884L158.333,368.884z"/>
	<path style="fill:#BFD8CA;" d="M121.036,119.367c-4.458-2.985-10.571-2.521-14.509,1.426c-3.938,3.938-4.411,10.043-1.418,14.517
		L121.036,119.367z"/>
	<path style="fill:#BFD8CA;" d="M124.21,122.533l-15.935,15.935c4.474,3.001,10.571,2.513,14.509-1.434
		C126.715,133.096,127.196,127,124.21,122.533z"/>
	<path style="fill:#BFD8CA;" d="M105.117,415.201c-2.993,4.466-2.521,10.579,1.418,14.517c3.938,3.938,10.043,4.411,14.509,1.426
		L105.117,415.201z"/>
	<path style="fill:#BFD8CA;" d="M108.267,412.042l15.935,15.935c3.001-4.474,2.505-10.571-1.434-14.517
		C118.838,409.521,112.742,409.049,108.267,412.042z"/>
</g>
<g>
</g>
<g>
</g>
<g>
</g>
<g>
</g>
<g>
</g>
<g>
</g>
<g>
</g>
<g>
</g>
<g>
</g>
<g>
</g>
<g>
</g>
<g>
</g>
<g>
</g>
<g>
</g>
<g>
</g>
</svg>
